<svg width="309" height="309" viewBox="0 0 309 309" fill="none" xmlns="http://www.w3.org/2000/svg">
<path fill-rule="evenodd" clip-rule="evenodd" d="M115.366 178.202C115.363 177.998 115.361 177.793 115.361 177.589C115.361 156.199 132.701 138.859 154.091 138.859C175.481 138.859 192.821 156.199 192.821 177.589C192.821 198.979 175.481 216.319 154.091 216.319C147.662 216.319 141.599 214.753 136.263 211.981V237.082C141.91 238.772 147.894 239.68 154.091 239.68C188.383 239.68 216.182 211.881 216.182 177.589C216.182 143.297 188.383 115.498 154.091 115.498C139.443 115.498 125.979 120.57 115.361 129.055V81.6805C115.361 75.2296 110.131 70 103.68 70C97.2295 70 92 75.2295 92 81.6805V176.354C92 176.479 92.002 176.603 92.0059 176.727C92.002 177.014 92 177.301 92 177.589C92 197.232 101.122 214.746 115.361 226.123V178.202H115.366ZM154.481 196.199C164.543 196.199 172.7 188.043 172.7 177.981C172.7 167.919 164.543 159.763 154.481 159.763C144.42 159.763 136.263 167.919 136.263 177.981C136.263 188.043 144.42 196.199 154.481 196.199Z" fill="#0097A7"/>
</svg>
