<svg width="99" height="40" viewBox="0 0 99 40" fill="none" xmlns="http://www.w3.org/2000/svg">
<path fill-rule="evenodd" clip-rule="evenodd" d="M38.7374 19.5926C38.7374 23.488 41.8953 26.6459 45.7908 26.6459C49.6862 26.6459 52.8441 23.488 52.8441 19.5926C52.8441 15.6971 49.6862 12.5392 45.7908 12.5392C41.8953 12.5392 38.7374 15.6971 38.7374 19.5926ZM45.7908 8.28485C52.0358 8.28485 57.0985 13.3475 57.0985 19.5926C57.0985 25.8377 52.0358 30.9003 45.7908 30.9003C43.123 30.9003 40.671 29.9765 38.7373 28.4313V37.0579C38.7373 38.2328 37.7849 39.1851 36.6101 39.1851C35.4353 39.1851 34.4829 38.2328 34.4829 37.0579V19.8165C34.4829 19.7929 34.4833 19.7693 34.4841 19.7459C34.4834 19.6949 34.483 19.6438 34.483 19.5926C34.483 13.3475 39.5457 8.28485 45.7908 8.28485ZM49.1796 19.7454C49.1796 17.9131 47.6941 16.4276 45.8617 16.4276C44.0293 16.4276 42.5439 17.9131 42.5439 19.7454C42.5439 21.5778 44.0293 23.0633 45.8617 23.0633C47.6941 23.0633 49.1796 21.5778 49.1796 19.7454Z" fill="#0097A7"/>
<path fill-rule="evenodd" clip-rule="evenodd" d="M4.25526 19.7045C4.25468 19.6673 4.25439 19.63 4.25439 19.5926C4.25439 15.6972 7.41228 12.5393 11.3077 12.5393C15.2032 12.5393 18.3611 15.6972 18.3611 19.5926C18.3611 23.488 15.2032 26.6459 11.3077 26.6459C10.1369 26.6459 9.03277 26.3607 8.06094 25.8559V30.4273C9.08933 30.735 10.1792 30.9003 11.3077 30.9003C17.5528 30.9003 22.6154 25.8377 22.6154 19.5926C22.6154 13.3475 17.5528 8.28488 11.3077 8.28488C8.64004 8.28488 6.18811 9.20866 4.25439 10.7538V2.1272C4.25439 0.952379 3.30201 0 2.1272 0C0.952378 0 0 0.952377 0 2.1272V19.3687C0 19.3913 0.000354113 19.4139 0.00105711 19.4364C0.000353122 19.4884 0 19.5404 0 19.5926C0 23.17 1.66125 26.3594 4.25438 28.4314V19.7045H4.25526ZM11.3788 22.9815C13.2112 22.9815 14.6967 21.496 14.6967 19.6636C14.6967 17.8312 13.2112 16.3458 11.3788 16.3458C9.54644 16.3458 8.06099 17.8312 8.06099 19.6636C8.06099 21.496 9.54644 22.9815 11.3788 22.9815Z" fill="#0097A7"/>
<rect x="26.4224" y="8.28485" width="4.25439" height="22.6154" rx="2.1272" fill="#0097A7"/>
<circle cx="28.5496" cy="4.81415" r="2.1272" fill="#0097A7"/>
<path fill-rule="evenodd" clip-rule="evenodd" d="M75.3479 8.28491C76.5227 8.28491 77.4751 9.23729 77.4751 10.4121C77.4751 10.724 77.408 11.0203 77.2874 11.2872C77.2079 11.5224 77.0856 11.7477 76.9193 11.9514L64.9224 26.6459H75.3479C76.5227 26.6459 77.4751 27.5983 77.4751 28.7731C77.4751 29.9479 76.5227 30.9003 75.3479 30.9003L60.5695 30.9003C59.547 30.9003 58.693 30.1789 58.4888 29.2173C58.3121 28.5755 58.4385 27.8606 58.8916 27.3057L70.9472 12.5393L60.5695 12.5393C59.3947 12.5393 58.4423 11.5869 58.4423 10.4121C58.4423 9.23729 59.3947 8.28491 60.5695 8.28491L75.3479 8.28491Z" fill="#0097A7"/>
<path fill-rule="evenodd" clip-rule="evenodd" d="M96.8733 8.28491C98.0481 8.28491 99.0005 9.23729 99.0005 10.4121C99.0005 10.7223 98.9341 11.0171 98.8147 11.2828C98.7353 11.5197 98.6125 11.7464 98.4452 11.9514L86.4483 26.6459H96.8733C98.0481 26.6459 99.0005 27.5983 99.0005 28.7731C99.0005 29.9479 98.0481 30.9003 96.8733 30.9003L82.0949 30.9003C81.0696 30.9003 80.2138 30.1749 80.0125 29.2094C79.839 28.5696 79.9663 27.8584 80.4175 27.3057L92.473 12.5393L82.0949 12.5393C80.9201 12.5393 79.9677 11.5869 79.9677 10.4121C79.9677 9.23729 80.9201 8.28491 82.0949 8.28491L96.8733 8.28491Z" fill="#0097A7"/>
</svg>
