<svg width="104" height="101" viewBox="0 0 44 41" fill="none" xmlns="http://www.w3.org/2000/svg">
<rect width="44" height="41" fill="white"/>
<path d="M22.5607 20.5646C22.5607 30.8176 30.8724 39.1293 41.1254 39.1293V2C30.8724 2 22.5607 10.3117 22.5607 20.5646Z" fill="url(#paint0_linear)"/>
<path d="M28.7507 20.5647C28.7507 27.4 34.2918 32.9411 41.1271 32.9411V8.18823C34.2918 8.18823 28.7507 13.7293 28.7507 20.5647Z" fill="white"/>
<path d="M24.6551 27.4667H20.246V22.9802H15.6593V18.5102H20.246V13.6622H24.6551V18.5102H29.2257V22.9802H24.6551V27.4667Z" fill="white"/>
<path d="M22.5646 20.5646C22.5646 10.3117 14.253 2.00001 4.00001 2.00001L4 39.1293C14.253 39.1293 22.5646 30.8176 22.5646 20.5646Z" fill="url(#paint1_linear)"/>
<path d="M16.1394 20.5646C16.1394 13.7293 10.5983 8.1882 3.76299 8.1882L3.76298 32.941C10.5983 32.941 16.1394 27.3999 16.1394 20.5646Z" fill="white"/>
<path d="M24.6571 27.4667H20.248V22.9802H15.6612V18.5102H20.248V13.6622H24.6571V18.5102H29.2277V22.9802H24.6571V27.4667Z" fill="white"/>
<rect x="3" y="9" width="2" height="23" fill="white"/>
<rect x="40" y="9" width="2" height="23" fill="white"/>
<defs>
<linearGradient id="paint0_linear" x1="31.843" y1="2" x2="31.843" y2="39.1293" gradientUnits="userSpaceOnUse">
<stop stop-color="#DD04F1"/>
<stop offset="1" stop-color="#172EA2"/>
</linearGradient>
<linearGradient id="paint1_linear" x1="13.2823" y1="39.1293" x2="13.2823" y2="2.00001" gradientUnits="userSpaceOnUse">
<stop stop-color="#DD04F1"/>
<stop offset="1" stop-color="#172EA2"/>
</linearGradient>
</defs>
</svg>
