<svg width="202" height="54" viewBox="0 0 202 54" fill="none" xmlns="http://www.w3.org/2000/svg">
<rect width="202" height="54" fill="white"/>
<path d="M30.5607 26.5646C30.5607 36.8176 38.8724 45.1293 49.1254 45.1293V8C38.8724 8 30.5607 16.3117 30.5607 26.5646Z" fill="url(#paint0_linear)"/>
<path d="M36.7507 26.5647C36.7507 33.4 42.2918 38.9411 49.1271 38.9411V14.1882C42.2918 14.1882 36.7507 19.7293 36.7507 26.5647Z" fill="white"/>
<path d="M32.6551 33.4667H28.246V28.9802H23.6593V24.5102H28.246V19.6622H32.6551V24.5102H37.2257V28.9802H32.6551V33.4667Z" fill="white"/>
<path d="M30.5646 26.5646C30.5646 16.3117 22.253 8.00001 12 8.00001L12 45.1293C22.253 45.1293 30.5646 36.8176 30.5646 26.5646Z" fill="url(#paint1_linear)"/>
<path d="M24.1394 26.5646C24.1394 19.7293 18.5983 14.1882 11.763 14.1882L11.763 38.941C18.5983 38.941 24.1394 33.3999 24.1394 26.5646Z" fill="white"/>
<path d="M32.6571 33.4667H28.248V28.9802H23.6612V24.5102H28.248V19.6622H32.6571V24.5102H37.2277V28.9802H32.6571V33.4667Z" fill="white"/>
<path d="M58.5224 41.9429H61.4111C63.0393 41.9429 64.3786 41.4352 65.4291 40.4198C66.4795 39.4043 67.0047 37.9337 67.0047 36.0079C67.0047 34.0821 66.4795 32.6115 65.4291 31.5961C64.3786 30.5632 63.0481 30.0467 61.4374 30.0467H58.5224V41.9429ZM61.5424 45.3043H54.8984V26.6853H61.5687C64.2823 26.6853 66.4882 27.5169 68.1864 29.1801C69.9022 30.8433 70.76 33.1192 70.76 36.0079C70.76 38.8791 69.9022 41.1463 68.1864 42.8095C66.4707 44.4727 64.2561 45.3043 61.5424 45.3043Z" fill="#172EA2"/>
<path d="M80.9921 32.3314V35.8504C80.642 35.7803 80.2918 35.7453 79.9417 35.7453C78.9438 35.7453 78.1384 36.0342 77.5257 36.6119C76.9129 37.1722 76.6066 38.1 76.6066 39.3956V45.3043H73.1139V32.3839H76.5015V34.301C77.1318 32.9529 78.3573 32.2789 80.178 32.2789C80.3706 32.2789 80.642 32.2964 80.9921 32.3314Z" fill="#172EA2"/>
<path d="M81.3204 44.8053C80.8477 44.3326 80.6113 43.7636 80.6113 43.0984C80.6113 42.4331 80.8477 41.8729 81.3204 41.4177C81.7931 40.945 82.3533 40.7086 83.0011 40.7086C83.6664 40.7086 84.2353 40.945 84.708 41.4177C85.1807 41.8729 85.4171 42.4331 85.4171 43.0984C85.4171 43.7636 85.1807 44.3326 84.708 44.8053C84.2353 45.2605 83.6664 45.4881 83.0011 45.4881C82.3533 45.4881 81.7931 45.2605 81.3204 44.8053Z" fill="#172EA2"/>
<path d="M96.9144 45.9713C94.2358 45.9713 91.9774 45.0784 90.1391 43.2926C88.3009 41.5069 87.3817 39.1697 87.3817 36.281C87.3817 33.4098 88.3096 31.0726 90.1654 29.2693C92.0387 27.4661 94.2709 26.5645 96.8619 26.5645C99.2429 26.5645 101.151 27.1685 102.587 28.3765C104.04 29.5845 104.977 31.0376 105.397 32.7358L101.983 33.8125C101.72 32.762 101.169 31.8779 100.328 31.1601C99.488 30.4248 98.3325 30.0572 96.8619 30.0572C95.3388 30.0572 93.9995 30.5999 92.844 31.6853C91.706 32.7708 91.1371 34.3027 91.1371 36.281C91.1371 38.1718 91.6973 39.6686 92.8177 40.7716C93.9557 41.8746 95.3213 42.426 96.9144 42.426C98.3676 42.426 99.523 42.0496 100.381 41.2968C101.256 40.544 101.843 39.6511 102.14 38.6182L105.528 39.6424C105.335 40.3952 105.02 41.1305 104.583 41.8483C104.162 42.5661 103.611 43.2401 102.928 43.8704C102.245 44.5006 101.379 45.0084 100.328 45.3935C99.2954 45.7787 98.1575 45.9713 96.9144 45.9713Z" fill="#BF00FF"/>
<path d="M111.384 41.5485C112.032 42.1962 112.811 42.5201 113.721 42.5201C114.632 42.5201 115.402 42.1962 116.032 41.5485C116.68 40.9007 117.004 39.9991 117.004 38.8436C117.004 37.6881 116.68 36.7865 116.032 36.1387C115.402 35.491 114.632 35.1671 113.721 35.1671C112.811 35.1671 112.032 35.491 111.384 36.1387C110.754 36.7865 110.439 37.6881 110.439 38.8436C110.439 39.9991 110.754 40.9007 111.384 41.5485ZM108.863 33.9328C110.159 32.6373 111.778 31.9895 113.721 31.9895C115.665 31.9895 117.275 32.6373 118.553 33.9328C119.849 35.2284 120.497 36.8653 120.497 38.8436C120.497 40.8219 119.849 42.4589 118.553 43.7544C117.275 45.0499 115.665 45.6977 113.721 45.6977C111.778 45.6977 110.159 45.0499 108.863 43.7544C107.585 42.4589 106.946 40.8219 106.946 38.8436C106.946 36.8653 107.585 35.2284 108.863 33.9328Z" fill="#BF00FF"/>
<path d="M126.221 37.872V45.3038H122.729V32.3834H126.116V33.9853C126.484 33.3551 127.009 32.8736 127.692 32.541C128.375 32.2084 129.092 32.042 129.845 32.042C131.368 32.042 132.524 32.5235 133.312 33.4864C134.117 34.4318 134.52 35.6573 134.52 37.1629V45.3038H131.027V37.7669C131.027 36.9966 130.826 36.3751 130.423 35.9024C130.038 35.4297 129.443 35.1933 128.637 35.1933C127.902 35.1933 127.315 35.4472 126.878 35.9549C126.44 36.4626 126.221 37.1016 126.221 37.872Z" fill="#BF00FF"/>
<path d="M141.032 37.872V45.3038H137.539V32.3834H140.927V33.9853C141.295 33.3551 141.82 32.8736 142.503 32.541C143.185 32.2084 143.903 32.042 144.656 32.042C146.179 32.042 147.335 32.5235 148.122 33.4864C148.928 34.4318 149.33 35.6573 149.33 37.1629V45.3038H145.838V37.7669C145.838 36.9966 145.636 36.3751 145.234 35.9024C144.849 35.4297 144.253 35.1933 143.448 35.1933C142.713 35.1933 142.126 35.4472 141.688 35.9549C141.251 36.4626 141.032 37.1016 141.032 37.872Z" fill="#BF00FF"/>
<path d="M160.703 45.3038C160.633 44.9536 160.598 44.4897 160.598 43.912C160.266 44.4897 159.767 44.9274 159.101 45.225C158.454 45.5051 157.762 45.6452 157.027 45.6452C155.504 45.6452 154.304 45.1637 153.429 44.2008C152.554 43.2204 152.116 42.0037 152.116 40.5506V32.3834H155.609V39.8415C155.609 40.6118 155.81 41.2421 156.213 41.7323C156.615 42.205 157.202 42.4414 157.972 42.4414C158.725 42.4414 159.32 42.2138 159.758 41.7586C160.196 41.2859 160.415 40.6644 160.415 39.894V32.3834H163.907V42.9666C163.907 43.7894 163.951 44.5685 164.039 45.3038H160.703Z" fill="#BF00FF"/>
<path d="M172.862 35.2196C171.934 35.2196 171.155 35.5435 170.525 36.1913C169.894 36.839 169.579 37.7231 169.579 38.8436C169.579 39.9641 169.894 40.8569 170.525 41.5222C171.172 42.17 171.96 42.4939 172.888 42.4939C173.711 42.4939 174.367 42.2838 174.858 41.8636C175.348 41.4259 175.68 40.9095 175.856 40.3142L178.928 41.3384C178.613 42.5289 177.93 43.5531 176.88 44.4109C175.829 45.2688 174.499 45.6977 172.888 45.6977C170.962 45.6977 169.343 45.0499 168.03 43.7544C166.734 42.4414 166.086 40.8044 166.086 38.8436C166.086 36.8653 166.725 35.2284 168.004 33.9328C169.299 32.6373 170.892 31.9895 172.783 31.9895C174.429 31.9895 175.777 32.4184 176.827 33.2763C177.878 34.1166 178.552 35.1408 178.849 36.3488L175.724 37.3993C175.304 35.9462 174.35 35.2196 172.862 35.2196Z" fill="#BF00FF"/>
<path d="M186.015 28.7966V32.657H188.614V35.7558H186.015V41.1655C186.015 41.7082 186.137 42.0934 186.382 42.321C186.627 42.5486 187.012 42.6624 187.538 42.6624C188.01 42.6624 188.369 42.6274 188.614 42.5573V45.446C188.107 45.6561 187.45 45.7612 186.645 45.7612C185.384 45.7612 184.386 45.411 183.651 44.7107C182.916 43.9929 182.548 43.0125 182.548 41.7695V35.7558H180.211V32.657H180.867C181.515 32.657 182.005 32.4732 182.338 32.1055C182.688 31.7203 182.863 31.2214 182.863 30.6086V28.7966H186.015Z" fill="#BF00FF"/>
<rect x="11" y="15" width="2" height="23" fill="white"/>
<rect x="48" y="15" width="2" height="23" fill="white"/>
<defs>
<linearGradient id="paint0_linear" x1="39.843" y1="8" x2="39.843" y2="45.1293" gradientUnits="userSpaceOnUse">
<stop stop-color="#DD04F1"/>
<stop offset="1" stop-color="#172EA2"/>
</linearGradient>
<linearGradient id="paint1_linear" x1="21.2823" y1="45.1293" x2="21.2823" y2="8.00001" gradientUnits="userSpaceOnUse">
<stop stop-color="#DD04F1"/>
<stop offset="1" stop-color="#172EA2"/>
</linearGradient>
</defs>
</svg>
